<svg width="15" height="14" viewBox="0 0 15 14" fill="none" xmlns="http://www.w3.org/2000/svg">
<path d="M12 3.5H3C1.89543 3.5 1 4.39543 1 5.5V11C1 12.1046 1.89543 13 3 13H12C13.1046 13 14 12.1046 14 11V5.5C14 4.39543 13.1046 3.5 12 3.5Z" stroke="black" stroke-linecap="round" stroke-linejoin="round"/>
<path d="M4.5 13V3.5" stroke="black" stroke-linecap="round" stroke-linejoin="round"/>
<path d="M10.5 13V3.5" stroke="black" stroke-linecap="round" stroke-linejoin="round"/>
<path d="M5 3.5C5 2.83696 5.26339 2.20107 5.73223 1.73223C6.20107 1.26339 6.83696 1 7.5 1C8.16304 1 8.79893 1.26339 9.26777 1.73223C9.73661 2.20107 10 2.83696 10 3.5" stroke="black" stroke-linecap="round" stroke-linejoin="round"/>
</svg>
