<svg width="24" height="24" viewBox="0 0 24 24" fill="none" xmlns="http://www.w3.org/2000/svg">
<path d="M4.5 5H19.5V20C19.5 21.1 18.6 22 17.5 22H6.5C5.4 22 4.5 21.1 4.5 20V5Z" fill="#B1B1B1"/>
<path d="M8.5 8.5V17.5C8.5 17.7761 8.72386 18 9 18H10C10.2761 18 10.5 17.7761 10.5 17.5V8.5C10.5 8.22386 10.2761 8 10 8H9C8.72386 8 8.5 8.22386 8.5 8.5Z" fill="white"/>
<path d="M13.5 8.5V17.5C13.5 17.7761 13.7239 18 14 18H15C15.2761 18 15.5 17.7761 15.5 17.5V8.5C15.5 8.22386 15.2761 8 15 8H14C13.7239 8 13.5 8.22386 13.5 8.5Z" fill="white"/>
<path d="M20.5 3H3.5V5H20.5V3Z" fill="#C7CED5"/>
<path d="M8 3L8.45 2.11C8.79 1.43 9.48 1 10.24 1H13.77C14.53 1 15.22 1.43 15.56 2.11L16.01 3H8.01H8Z" fill="#C7CED5"/>
</svg>
