<svg width="53" height="53" viewBox="0 0 53 53" fill="none" xmlns="http://www.w3.org/2000/svg">
<path d="M19.3122 42.4513L21.7169 40.4622L21.138 34.8661L17.1598 30.0566L11.7714 28.4386L9.3667 30.4277L15.5418 35.445L19.3122 42.4513Z" fill="#C8C8C8"/>
<path d="M30.2967 43.49L35.1062 39.5118L33.1616 24.9202L25.9474 30.8874L30.2967 43.49Z" fill="#C8C8C8"/>
<path d="M35.2048 15.1503L14.7646 32.0576L18.7428 36.8671L39.183 19.9597C39.8207 19.4322 40.2228 18.6729 40.3008 17.8489C40.3787 17.0249 40.1261 16.2037 39.5986 15.5659C39.071 14.9281 38.3118 14.526 37.4878 14.4481C36.6638 14.3702 35.8425 14.6227 35.2048 15.1503Z" fill="#C8C8C8"/>
<path d="M15.2152 15.4652L10.4058 19.4434L21.9692 26.0786L29.1834 20.1113L15.2152 15.4652Z" fill="#C8C8C8"/>
</svg>
