<svg width="34" height="34" viewBox="0 0 34 34" fill="none" xmlns="http://www.w3.org/2000/svg">
<path d="M12.3767 27.1216L13.9178 25.8468L13.5468 22.2604L10.9973 19.1782L7.54404 18.1413L6.00293 19.416L9.96036 22.6314L12.3767 27.1216Z" fill="#5096FF"/>
<path d="M19.4159 27.7875L22.4981 25.238L21.2519 15.8867L16.6286 19.7109L19.4159 27.7875Z" fill="#CBDFFF"/>
<path d="M22.5618 9.62459L9.4624 20.46L12.0119 23.5422L25.1113 12.7068C25.52 12.3687 25.7777 11.8821 25.8277 11.354C25.8776 10.826 25.7158 10.2997 25.3777 9.89095C25.0396 9.48222 24.553 9.22454 24.0249 9.17458C23.4968 9.12463 22.9705 9.28651 22.5618 9.62459Z" fill="#5096FF"/>
<path d="M9.75067 9.82648L6.66846 12.376L14.0791 16.6283L18.7024 12.804L9.75067 9.82648Z" fill="#CBDFFF"/>
</svg>
