<svg width="15" height="15" viewBox="0 0 15 15" fill="none" xmlns="http://www.w3.org/2000/svg">
<g clip-path="url(#clip0_117_567)">
<path d="M9.375 5.625L13.125 1.875V5.625H9.375Z" fill="#B1B1B1"/>
<path fill-rule="evenodd" clip-rule="evenodd" d="M7.50546 2.8125C6.88981 2.8118 6.28006 2.93254 5.71114 3.16782C5.14221 3.40309 4.62528 3.74828 4.18995 4.18361C3.75462 4.61894 3.40943 5.13587 3.17415 5.70479C2.93888 6.27371 2.81815 6.88345 2.81885 7.49911L2.81885 7.5C2.81885 8.1152 2.94012 8.72437 3.17571 9.29268C3.4113 9.86099 3.75659 10.3773 4.19185 10.812C4.62711 11.2468 5.1438 11.5915 5.71238 11.8265C6.28095 12.0614 6.89026 12.182 7.50546 12.1813H7.50635C8.7479 12.1813 9.93859 11.6881 10.8165 10.8101C11.6944 9.93224 12.1876 8.74155 12.1876 7.5H13.7501C13.7501 9.15595 13.0923 10.7441 11.9214 11.915C10.7506 13.0857 9.16287 13.7435 7.50725 13.7438M7.50645 1.25C6.68558 1.24917 5.87259 1.41021 5.11402 1.72391C4.3552 2.03771 3.66573 2.49812 3.0851 3.07875C2.50446 3.65939 2.04405 4.34885 1.73025 5.10767C1.4165 5.86636 1.25547 6.67947 1.25635 7.50045C1.25635 7.5003 1.25635 7.50015 1.25635 7.5L2.0376 7.5L1.25635 7.5009C1.25635 7.50075 1.25635 7.5006 1.25635 7.50045C1.25641 8.32085 1.41815 9.13318 1.73232 9.89103C2.04654 10.649 2.50708 11.3376 3.08762 11.9175C3.66817 12.4974 4.35733 12.9572 5.11568 13.2705C5.87375 13.5838 6.68611 13.7446 7.50635 13.7438M7.50645 1.25C8.32646 1.24935 9.13853 1.41056 9.89612 1.72438C10.654 2.03831 11.3423 2.49877 11.9218 3.07936L10.8159 4.18314C10.3817 3.74814 9.86595 3.40314 9.29814 3.16793C8.73034 2.93272 8.12167 2.81194 7.50707 2.8125L7.50546 2.8125" fill="#B1B1B1"/>
</g>
<defs>
<clipPath id="clip0_117_567">
<rect width="15" height="15" fill="white"/>
</clipPath>
</defs>
</svg>
