<svg width="138" height="30" viewBox="0 0 138 30" fill="none" xmlns="http://www.w3.org/2000/svg">
<path d="M3.25489 29L0.712891 0.299998H4.60789L6.12489 17.233L7.84689 4.359H10.5119L12.2339 17.233L13.7509 0.299998H17.6459L15.1039 29H11.1679L9.19989 13.543L7.19089 29H3.25489ZM22.6104 29C21.3531 29 20.3417 28.6447 19.5764 27.934C18.8384 27.196 18.4694 26.2803 18.4694 25.187V12.313C18.4694 11.1923 18.8384 10.2767 19.5764 9.566C20.3417 8.85533 21.3531 8.5 22.6104 8.5H22.7744C23.5124 8.5 24.1684 8.67767 24.7424 9.033V8.5H28.6374V25.187H29.2114L29.6214 29H24.7424V27.401L23.7174 29H22.6104ZM22.5694 12.313C22.4327 12.313 22.3644 12.3813 22.3644 12.518V24.982C22.3644 25.1187 22.4327 25.187 22.5694 25.187H24.7424V12.313H22.5694ZM31.2153 29V12.313H30.2313L30.6413 8.5H35.1103V10.099L36.1353 8.5H37.2423C38.4996 8.5 39.4973 8.85533 40.2353 9.566C41.0006 10.2767 41.3833 11.1923 41.3833 12.313V25.187H42.4083L41.9983 29H37.4883V12.518C37.4883 12.3813 37.42 12.313 37.2833 12.313H35.1103V29H31.2153ZM47.5948 29C46.3375 29 45.3261 28.6447 44.5608 27.934C43.8228 27.196 43.4538 26.2803 43.4538 25.187V12.313C43.4538 11.1923 43.8228 10.2767 44.5608 9.566C45.3261 8.85533 46.3375 8.5 47.5948 8.5H47.7588C48.4968 8.5 49.1528 8.67767 49.7268 9.033V4.113H48.7428L49.1528 0.299998H53.6218V25.187H54.1958L54.6058 29H49.7268V27.401L48.7018 29H47.5948ZM47.5538 12.313C47.4171 12.313 47.3488 12.3813 47.3488 12.518V24.982C47.3488 25.1187 47.4171 25.187 47.5538 25.187H49.7268V12.313H47.5538ZM55.4255 25.351V12.149C55.4255 11.001 55.7808 10.0853 56.4915 9.402C57.2021 8.69133 58.1315 8.336 59.2795 8.336H61.8215C62.9695 8.336 63.8988 8.69133 64.6095 9.402C65.3201 10.0853 65.6755 11.001 65.6755 12.149V17.192H61.7805V12.354C61.7805 12.2173 61.7121 12.149 61.5755 12.149H59.5255C59.3888 12.149 59.3205 12.2173 59.3205 12.354V17.192H65.6755V21.005H59.3205V25.146C59.3205 25.2827 59.3888 25.351 59.5255 25.351H61.5755C61.7121 25.351 61.7805 25.2963 61.7805 25.187V22.932H65.6755V25.351C65.6755 26.499 65.3201 27.4283 64.6095 28.139C63.8988 28.8223 62.9695 29.164 61.8215 29.164H59.2795C58.1315 29.164 57.2021 28.8223 56.4915 28.139C55.7808 27.4283 55.4255 26.499 55.4255 25.351ZM71.9863 8.5V10.304L73.0933 8.5H75.8403V12.477H71.9863V29H68.0913V12.313H67.1073L67.5173 8.5H71.9863ZM95.1138 25.187C95.1138 26.335 94.7585 27.2643 94.0478 27.975C93.3371 28.6583 92.4078 29 91.2598 29H88.3078C87.1598 29 86.2305 28.6583 85.5198 27.975C84.8091 27.2643 84.4538 26.335 84.4538 25.187V4.113C84.4538 2.965 84.8091 2.04933 85.5198 1.366C86.2305 0.655332 87.1598 0.299998 88.3078 0.299998H91.2598C92.4078 0.299998 93.3371 0.655332 94.0478 1.366C94.7585 2.04933 95.1138 2.965 95.1138 4.113V10.673H91.2188V4.318C91.2188 4.18133 91.1505 4.113 91.0138 4.113H88.5538C88.4171 4.113 88.3488 4.18133 88.3488 4.318V24.982C88.3488 25.1187 88.4171 25.187 88.5538 25.187H91.0138C91.1505 25.187 91.2188 25.1187 91.2188 24.982V16.495H89.6198L89.9478 12.682H95.1138V25.187ZM103.593 25.187V8.5H107.488V25.187H108.103L108.513 29H103.593V27.401L102.568 29H101.461C100.203 29 99.1921 28.6447 98.4268 27.934C97.6888 27.196 97.3198 26.2803 97.3198 25.187V12.313H96.3358L96.7458 8.5H101.215V24.982C101.215 25.1187 101.283 25.187 101.42 25.187H103.593ZM113.208 3.047L113.618 6.86H109.723V3.047H113.208ZM113.618 8.5V29H109.723V12.313H109.108L109.518 8.5H113.618ZM119.385 29C118.127 29 117.116 28.6447 116.351 27.934C115.613 27.196 115.244 26.2803 115.244 25.187V12.313C115.244 11.1923 115.613 10.2767 116.351 9.566C117.116 8.85533 118.127 8.5 119.385 8.5H119.549C120.287 8.5 120.943 8.67767 121.517 9.033V4.113H120.533L120.943 0.299998H125.412V25.187H125.986L126.396 29H121.517V27.401L120.492 29H119.385ZM119.344 12.313C119.207 12.313 119.139 12.3813 119.139 12.518V24.982C119.139 25.1187 119.207 25.187 119.344 25.187H121.517V12.313H119.344ZM127.216 25.351V12.149C127.216 11.001 127.571 10.0853 128.282 9.402C128.992 8.69133 129.922 8.336 131.07 8.336H133.612C134.76 8.336 135.689 8.69133 136.4 9.402C137.11 10.0853 137.466 11.001 137.466 12.149V17.192H133.571V12.354C133.571 12.2173 133.502 12.149 133.366 12.149H131.316C131.179 12.149 131.111 12.2173 131.111 12.354V17.192H137.466V21.005H131.111V25.146C131.111 25.2827 131.179 25.351 131.316 25.351H133.366C133.502 25.351 133.571 25.2963 133.571 25.187V22.932H137.466V25.351C137.466 26.499 137.11 27.4283 136.4 28.139C135.689 28.8223 134.76 29.164 133.612 29.164H131.07C129.922 29.164 128.992 28.8223 128.282 28.139C127.571 27.4283 127.216 26.499 127.216 25.351Z" fill="#4E4E4E"/>
</svg>
