<svg width="24" height="24" viewBox="0 0 24 24" fill="none" xmlns="http://www.w3.org/2000/svg">
<path d="M21 20H3V22H21V20Z" fill="#A1A1A1"/>
<path fill-rule="evenodd" clip-rule="evenodd" d="M17.7071 2.29289C17.3166 1.90237 16.6834 1.90237 16.2929 2.29289L13.2968 5.289L13.2929 5.29289L13.289 5.29681L5.29291 13.2929C5.16476 13.4211 5.07384 13.5816 5.02988 13.7575L4.02988 17.7575C3.94468 18.0982 4.04453 18.4587 4.29291 18.7071C4.54129 18.9555 4.90178 19.0553 5.24256 18.9701L9.24256 17.9701C9.41839 17.9262 9.57897 17.8353 9.70713 17.7071L20.7071 6.70711C21.0977 6.31658 21.0977 5.68342 20.7071 5.29289L17.7071 2.29289ZM17 7.5858L18.5858 6L17 4.41421L15.4142 6.00001L17 7.5858ZM14 7.41422L15.5858 9.00001L8.48877 16.097L6.37439 16.6256L6.90299 14.5112L14 7.41422Z" fill="#A1A1A1"/>
</svg>
